PathFileType	4	(X/Y/Z)	TRAIL_071_EP_01_markers.trc
DataRate	CameraRate	NumFrames	NumMarkers	Units	OrigDataRate	OrigDataStartFrame	OrigNumFrames
200	200	4	44	mm	200	136	270
Frame#	Time	RSH			LSH			C7			LELB			LWR			RELB			RWR			RASI			LASI			SACR			P1			P2			LTHLP			LTHLD			LTHAP			LTHAD			LLEPI			LPAT			LTIAP			LTIAD			LTILAT			LLMAL			LHEEL			LMFS			LMFL			LP5MT			LP1MT			LTOE			RTHLP			RTHLD			RTHAP			RTHAD			RLEPI			RPAT			RTIAP			RTIAD			RTILAT			RLMAL			RHEEL			RMFS			RMFL			RP5MT			RP1MT			RTOE			
		X1	Y1	Z1	X2	Y2	Z2	X3	Y3	Z3	X4	Y4	Z4	X5	Y5	Z5	X6	Y6	Z6	X7	Y7	Z7	X8	Y8	Z8	X9	Y9	Z9	X10	Y10	Z10	X11	Y11	Z11	X12	Y12	Z12	X13	Y13	Z13	X14	Y14	Z14	X15	Y15	Z15	X16	Y16	Z16	X17	Y17	Z17	X18	Y18	Z18	X19	Y19	Z19	X20	Y20	Z20	X21	Y21	Z21	X22	Y22	Z22	X23	Y23	Z23	X24	Y24	Z24	X25	Y25	Z25	X26	Y26	Z26	X27	Y27	Z27	X28	Y28	Z28	X29	Y29	Z29	X30	Y30	Z30	X31	Y31	Z31	X32	Y32	Z32	X33	Y33	Z33	X34	Y34	Z34	X35	Y35	Z35	X36	Y36	Z36	X37	Y37	Z37	X38	Y38	Z38	X39	Y39	Z39	X40	Y40	Z40	X41	Y41	Z41	X42	Y42	Z42	X43	Y43	Z43	X44	Y44	Z44
136	        0.6750000119	     2521.0818946362	     1480.6530475616	      204.9129009247	     2470.1368808746	     1503.2503604889	     -122.0918893814	     2410.9545052052	     1508.9024305344	       52.3677468300	     2303.5513311625	     1278.6657810211	     -290.8738851547	     2490.5267953873	     1104.0625572205	     -205.1231265068	     2500.6362497807	     1161.0341072083	      340.8978581429	     2718.6971902847	     1159.1078042984	      171.6055870056	     2472.7497398853	      967.9755568504	      170.0238585472	     2514.8641467094	      990.1859164238	      -88.5252356529	     2321.3041722775	     1042.4573421478	       23.8772034645	     2327.8148919344	     1043.4145927429	      -21.5885043144	     2321.8833506107	     1041.8021678925	       66.0835504532	     2538.6439263821	      737.8190755844	     -141.8420076370	     2599.9578237534	      648.0363607407	     -117.0510649681	     2617.5187230110	      780.0285220146	      -52.7163147926	     2666.2691235542	      686.8344545364	      -46.3590621948	     2628.1324625015	      565.6497478485	      -94.9648022652	     2696.2386369705	      557.5397610664	      -45.2764630318	     2572.4934637547	      407.7122211456	      -51.2015819550	     2495.9934949875	      333.1403434277	      -55.4149150848	     2489.1963303089	      413.2665395737	     -106.4328551292	     2360.6832921505	      260.0650191307	      -83.9249491692	     2284.7457453609	      256.0468614101	      -32.0139527321	     2438.7231171131	      169.5935130119	      -44.0148115158	     2387.1157020330	      142.7009105682	     -124.2675185204	     2434.7788095474	      103.4224629402	     -130.6309700012	     2443.4777200222	      109.7801029682	      -25.4438519478	     2479.8083603382	       95.0995907187	      -55.9945106506	     2355.7065874338	      710.6813192368	      184.6090555191	     2335.4171514511	      617.2462105751	      163.2752418518	     2452.9165625572	      689.5880103111	      110.4114651680	     2425.6959557533	      601.0383963585	       98.5684394836	     2307.2171211243	      502.9030442238	      139.9727463722	     2362.5658005476	      468.0894613266	       92.9119586945	     2268.3864906430	      352.7509570122	       93.5309529305	     2201.4992348850	      265.8287584782	       80.5137157440	     2187.4579936266	      347.8971123695	      142.0940756798	     2065.4357820749	      173.2932776213	       96.1291790009	     1999.3096739054	      167.5735414028	       44.2327260971	     2157.4115217663	       82.5117304921	       43.7662601471	     2109.5684655011	       51.3743944466	      123.9107251167	     2154.1215740144	       32.6479524374	      126.9001364708	     2167.7001174539	       32.1581140161	       19.4274783134	     2213.8182856143	       38.2506474853	       52.6047348976
137	        0.6800000072	     2539.6577417850	     1485.4512214661	      204.0608525276	     2486.4973127842	     1507.5240135193	     -121.7390894890	     2428.5993874073	     1512.9081010818	       52.7178049088	     2316.3754492998	     1285.0253582001	     -288.9834344387	     2503.8503110409	     1109.1761589050	     -207.9543471336	     2521.7403173447	     1166.1019325256	      339.9753570557	     2736.7458939552	     1167.1599149704	      167.0364141464	     2491.6333556175	      971.5991616249	      169.8607206345	     2533.3794057369	      995.6000447273	      -88.3124470711	     2340.0007188320	     1046.5718507767	       24.2673158646	     2346.5764671564	     1047.8434562683	      -21.3239789009	     2340.5963927507	     1045.4951524734	       66.3741827011	     2557.9629242420	      743.3885335922	     -141.3456797600	     2618.8797354698	      653.6361575127	     -115.6930923462	     2635.5669796467	      786.7171168327	      -51.8403053284	     2684.7593784332	      693.5551762581	      -45.2250838280	     2647.7008759975	      570.8887577057	      -93.7710404396	     2715.5950069427	      564.5414590836	      -43.5214638710	     2598.1625914574	      410.0027978420	      -49.2838621140	     2525.6270468235	      331.5671980381	      -53.6688566208	     2515.5593156815	      410.5067551136	     -105.6905388832	     2394.1280692816	      251.2419819832	      -83.1556320190	     2317.8375959396	      243.6108440161	      -32.0041775703	     2476.4138460159	      165.1875674725	      -41.7715907097	     2426.9244074821	      134.8890811205	     -121.9742298126	     2476.7222702503	       98.0699956417	     -127.6162862778	     2484.1896891594	      105.9652641416	      -22.7757692337	     2521.5175449848	       92.8700268269	      -52.6087880135	     2369.5359826088	      715.6274914742	      185.0345730782	     2346.6402292252	      622.8676438332	      164.2101407051	     2466.3757085800	      692.4715042114	      109.8072528839	     2433.7105453014	      603.8413047791	       96.1543321609	     2314.7592544556	      509.2816948891	      141.3666605949	     2369.5547580719	      473.3390212059	       94.4458842278	     2275.2820923924	      359.2472970486	       96.2231159210	     2209.0839035809	      271.8856036663	       83.4302902222	     2193.4654600918	      355.0114631653	      143.6006426811	     2073.7425163388	      178.8510382175	       97.6528525352	     2008.8228732347	      176.6275614500	       45.2478528023	     2162.0775987394	       83.2068324089	       44.9404120445	     2112.0161041617	       53.6881983280	      124.4633793831	     2154.9849933945	       32.6599925756	      126.9909739494	     2169.2878836766	       32.5830653310	       19.9541449547	     2214.3326736987	       38.1822921336	       52.6993870735
138	        0.6850000024	     2558.2560598850	     1490.1217222214	      203.1101584435	     2502.9406249523	     1511.6297006607	     -121.4112043381	     2446.1880028248	     1516.8088674545	       53.1554818153	     2329.4039070606	     1291.2256717682	     -286.9891226292	     2517.3694789410	     1114.2860651016	     -210.4962766171	     2542.5455868244	     1171.1636781693	      339.0585780144	     2754.6960711479	     1174.6919155121	      162.6326441765	     2510.6731355190	      975.1329421997	      169.7234511375	     2551.9954264164	     1000.8375644684	      -88.2889032364	     2358.7635308504	     1050.5633354187	       24.6795415878	     2365.4675483704	     1052.1959066391	      -21.0323929787	     2359.4430536032	     1049.1654872894	       66.6831731796	     2577.2832036018	      748.7959861755	     -140.6871080399	     2637.4041736126	      658.7501168251	     -114.2861247063	     2653.5167694092	      792.9908037186	      -51.0674715042	     2702.9508948326	      699.7358798981	      -44.1305041313	     2666.7909026146	      575.5926370621	      -92.5483703613	     2734.4845533371	      570.9862112999	      -42.0690178871	     2623.3873367310	      412.0199382305	      -47.2956299782	     2554.6857118607	      329.9944698811	      -51.4735579491	     2541.8788194656	      407.4867665768	     -105.0474047661	     2428.0744194984	      242.4730211496	      -82.2025537491	     2351.8153131008	      231.2538176775	      -31.1796665192	     2514.1639709473	      161.1547917128	      -39.2833352089	     2467.1617746353	      127.5855451822	     -119.6689605713	     2518.7408030033	       93.2396724820	     -124.3829727173	     2524.8883366585	      102.6785895228	      -19.6292996407	     2563.0965828896	       91.2025943398	      -48.9574670792	     2383.5140168667	      720.5405235291	      185.6022477150	     2358.1398725510	      628.3407807350	      165.2636528015	     2480.3733229637	      695.2334046364	      109.6275448799	     2445.0402557850	      607.4799299240	       96.0640907288	     2322.6063847542	      515.8415436745	      142.7716612816	     2376.9845068455	      478.6449074745	       95.9306955338	     2282.5169637799	      365.9402132034	       98.9154577255	     2217.1015925705	      278.0061662197	       86.6066813469	     2199.7836753726	      362.6533448696	      145.4772949219	     2082.2473540902	      184.3999177217	       99.5056629181	     2019.1571265459	      186.0573142767	       46.7085838318	     2167.0779068954	       84.4788476825	       45.8340048790	     2114.6614700556	       56.2735572457	      124.9002814293	     2155.9507870115	       33.0266207457	      127.3455619812	     2171.2234290317	       33.3504453301	       20.5961465836	     2215.1799388230	       37.6674085855	       53.2286167145
139	        0.6899999976	     2576.7761170864	     1494.6316480637	      202.1164894104	     2519.4690823555	     1515.5261754990	     -121.1057305336	     2463.8104140759	     1520.5621719360	       53.4771084785	     2342.5790518522	     1297.3445653915	     -284.9305868149	     2530.9753119946	     1119.3760633469	     -212.8973305225	     2562.9409849644	     1175.8965253830	      338.1054997444	     2772.5377082825	     1181.8420886993	      158.4466695786	     2529.3055474758	      978.7458181381	      169.4642305374	     2570.4865157604	     1006.0600042343	      -88.1720185280	     2377.5215744972	     1054.3857812881	       25.0969529152	     2384.4160735607	     1056.3583374023	      -20.6474661827	     2378.2790154219	     1052.7042150497	       67.0322775841	     2596.2795019150	      753.9609670639	     -140.0091052055	     2655.3981602192	      663.2612347603	     -112.7802729607	     2671.3249087334	      798.7514138222	      -50.2706766129	     2720.8460569382	      705.2830457687	      -43.0442094803	     2685.3523850441	      579.6852111816	      -91.4156436920	     2753.0384659767	      576.8718123436	      -40.7050251961	     2648.6538052559	      413.8999283314	      -45.2843904495	     2584.1300487518	      328.2583355904	      -49.4316220284	     2568.1032240391	      404.4007360935	     -104.5693159103	     2462.2110128403	      233.9255064726	      -81.4914703369	     2386.1458152533	      219.2766070366	      -30.7393670082	     2551.9266128540	      157.5627326965	      -36.7543101311	     2507.4061751366	      120.5469071865	     -117.0361042023	     2560.7968866825	       89.0141502023	     -120.9897398949	     2565.3856992722	       99.9209657311	      -16.2559747696	     2604.4231355190	       90.1357308030	      -45.0589060783	     2397.6712822914	      725.4289984703	      186.2587332726	     2369.8915392160	      633.9610815048	      166.4251685143	     2494.7899281979	      697.9250311852	      109.8213791847	     2456.7222595215	      611.0636591911	       96.1915254593	     2330.8766186237	      522.5257873535	      144.1599726677	     2384.8666399717	      483.9559793472	       97.3420739174	     2290.1801168919	      372.8152215481	      101.6847491264	     2225.3565192223	      284.4652235508	       90.2674794197	     2206.5917626023	      370.0195550919	      147.0829844475	     2090.7959789038	      190.1923567057	      101.7280817032	     2030.1294177771	      195.8360821009	       48.5358238220	     2171.9622071832	       86.1816182733	       48.0034351349	     2117.4535118043	       59.4081617892	      125.2725124359	     2157.0816952735	       33.4938950837	      127.6688575745	     2173.5514039174	       34.9465757608	       21.0931301117	     2216.5986932814	       36.9405224919	       53.8412928581
